<svg xmlns="http://www.w3.org/2000/svg" xmlns:xlink="http://www.w3.org/1999/xlink" width="1080" height="1920" viewBox="0 0 1080 1920"><defs><clipPath id="b"><rect width="1080" height="1920"/></clipPath></defs><g id="a" clip-path="url(#b)"><rect width="1080" height="1920" fill="#fff"/><g transform="translate(631 -21)" opacity="0.49"><path d="M266.294,252.842A56.227,56.227,0,0,1,244.659,144.67a54.9,54.9,0,0,1,43.042,0,56.227,56.227,0,0,1,0,103.89,54.2,54.2,0,0,1-21.408,4.282Zm0-105.015a49.58,49.58,0,0,0-18.7,3.831,48.65,48.65,0,1,0,37.182,0A43.852,43.852,0,0,0,266.294,147.827Z" transform="translate(25.584 -22.095)"/><path d="M299.911,291.2a36.131,36.131,0,0,1-12.846-2.479,33.709,33.709,0,0,1-18.253-44.169,3.788,3.788,0,1,1,6.986,2.93c-5.634,13.3.9,28.62,14.2,34.254s28.62-.9,34.254-14.2a3.788,3.788,0,1,1,6.986,2.93A34.046,34.046,0,0,1,299.911,291.2Z" transform="translate(-8.033 -82.986)"/><path d="M334.046,233.466a4.416,4.416,0,0,1-1.578-.225,3.7,3.7,0,0,1-2.028-4.958l5.634-13.971a3.788,3.788,0,1,1,6.986,2.93l-5.634,13.971a3.471,3.471,0,0,1-3.38,2.253Z" transform="translate(-46.224 -64.916)"/><path d="M368.766,247.466a4.417,4.417,0,0,1-1.578-.225,3.7,3.7,0,0,1-2.028-4.958l5.859-13.971a3.788,3.788,0,0,1,6.986,2.93l-5.859,13.971a3.69,3.69,0,0,1-3.38,2.253Z" transform="translate(-66.972 -73.282)"/><path d="M542.283,278.143H512.311a3.831,3.831,0,1,1,0-7.662h29.972a3.831,3.831,0,0,1,0,7.662Z" transform="translate(-152.827 -99.903)"/><path d="M131.8,278.143H101.831a3.831,3.831,0,0,1,0-7.662H131.8a3.949,3.949,0,0,1,3.831,3.831A3.8,3.8,0,0,1,131.8,278.143Z" transform="translate(92.468 -99.903)"/><path d="M508.822,241.182a4.068,4.068,0,0,1-3.831-3.155,3.828,3.828,0,0,1,2.93-4.507l14.647-2.93a3.8,3.8,0,0,1,1.577,7.437l-14.647,2.93c-.225,0-.451.225-.676.225Z" transform="translate(-150.69 -76.013)"/><path d="M143.142,313.982a4.068,4.068,0,0,1-3.831-3.155,3.828,3.828,0,0,1,2.93-4.507l14.647-2.93a3.8,3.8,0,1,1,1.577,7.437l-14.647,2.93c-.226,0-.451.225-.676.225Z" transform="translate(67.834 -119.517)"/><path d="M483.843,172a3.882,3.882,0,0,1-3.155-1.8,3.991,3.991,0,0,1,1.127-5.409l12.395-8.338a3.907,3.907,0,0,1,4.282,6.536L486.1,171.321a2.964,2.964,0,0,1-2.254.676Z" transform="translate(-135.852 -31.391)"/><path d="M173.6,379.757a3.882,3.882,0,0,1-3.155-1.8,3.991,3.991,0,0,1,1.127-5.409l12.395-8.338a3.907,3.907,0,1,1,4.282,6.536l-12.395,8.338a3.815,3.815,0,0,1-2.254.676Z" transform="translate(49.542 -155.545)"/><path d="M437.923,120.052a3.14,3.14,0,0,1-2.028-.676,3.948,3.948,0,0,1-1.127-5.409l8.338-12.395a3.907,3.907,0,1,1,6.536,4.282l-8.564,12.4a4.222,4.222,0,0,1-3.155,1.8Z" transform="translate(-108.411 2.075)"/><path d="M230.163,430.292a3.141,3.141,0,0,1-2.028-.676,3.948,3.948,0,0,1-1.127-5.409l8.338-12.395a3.907,3.907,0,0,1,6.536,4.282l-8.338,12.395a4.282,4.282,0,0,1-3.381,1.8Z" transform="translate(15.743 -183.319)"/><path d="M377.557,91.957h-.676a3.831,3.831,0,0,1-2.93-4.507l2.93-14.647a3.8,3.8,0,1,1,7.437,1.577l-2.93,14.647a4.361,4.361,0,0,1-3.831,2.93Z" transform="translate(-72.383 20.028)"/><path d="M304.757,457.637h-.676a3.831,3.831,0,0,1-2.93-4.507l2.93-14.647a3.8,3.8,0,1,1,7.437,1.577l-2.93,14.647a3.86,3.86,0,0,1-3.831,2.93Z" transform="translate(-28.879 -198.496)"/><path d="M306.791,91.623a4.068,4.068,0,0,1-3.831-3.155l-2.93-14.647a3.8,3.8,0,1,1,7.437-1.577l2.93,14.647a3.828,3.828,0,0,1-2.93,4.507c0,.225-.226.225-.676.225Z" transform="translate(-28.209 20.363)"/><path d="M379.591,457.3a4.068,4.068,0,0,1-3.831-3.155L372.83,439.5a3.8,3.8,0,0,1,7.437-1.577l2.93,14.647a3.828,3.828,0,0,1-2.93,4.507c0,.225-.226.225-.676.225Z" transform="translate(-71.713 -198.161)"/><path d="M238.5,120.052a3.882,3.882,0,0,1-3.155-1.8l-8.338-12.395a3.907,3.907,0,1,1,6.536-4.282l8.338,12.395a3.991,3.991,0,0,1-1.127,5.409,3.811,3.811,0,0,1-2.254.676Z" transform="translate(15.742 2.075)"/><path d="M446.261,430.292a3.882,3.882,0,0,1-3.155-1.8l-8.338-12.395a3.907,3.907,0,1,1,6.536-4.282l8.338,12.395a3.991,3.991,0,0,1-1.127,5.409,5.027,5.027,0,0,1-2.254.676Z" transform="translate(-108.411 -183.319)"/><path d="M186.556,172a3.14,3.14,0,0,1-2.028-.676l-12.395-8.338a3.907,3.907,0,0,1,4.282-6.536l12.395,8.338a3.948,3.948,0,0,1,1.127,5.409,3.988,3.988,0,0,1-3.381,1.8Z" transform="translate(49.208 -31.391)"/><path d="M496.461,379.754a3.141,3.141,0,0,1-2.028-.676l-12.621-8.339a3.907,3.907,0,0,1,4.282-6.536l12.395,8.338a3.948,3.948,0,0,1,1.127,5.409,4.224,4.224,0,0,1-3.155,1.8Z" transform="translate(-135.85 -155.543)"/><path d="M158.126,241.517h-.676l-14.647-2.93a3.8,3.8,0,0,1,1.577-7.437l14.647,2.93a3.831,3.831,0,0,1,2.93,4.507,4.123,4.123,0,0,1-3.831,2.93Z" transform="translate(67.498 -76.348)"/><path d="M523.806,314.317h-.676l-14.647-2.93a3.8,3.8,0,0,1,1.577-7.437l14.647,2.93a3.831,3.831,0,0,1,2.93,4.507,4.123,4.123,0,0,1-3.831,2.93Z" transform="translate(-151.026 -119.852)"/><path d="M499.294,196.539a3.861,3.861,0,0,1-3.606-2.479,3.736,3.736,0,0,1,2.028-4.958l27.718-11.493a3.788,3.788,0,1,1,2.93,6.986l-27.718,11.493a1.656,1.656,0,0,1-1.352.451Z" transform="translate(-144.994 -44.215)"/><path d="M120.174,353.9a3.861,3.861,0,0,1-3.606-2.479,3.736,3.736,0,0,1,2.028-4.958l27.718-11.493a3.788,3.788,0,1,1,2.93,6.986l-27.718,11.493a3.189,3.189,0,0,1-1.352.451Z" transform="translate(81.562 -138.251)"/><path d="M462.947,127.879a4.159,4.159,0,0,1-2.7-1.127,3.681,3.681,0,0,1,0-5.409l21.184-21.184a3.825,3.825,0,0,1,5.409,5.409l-21.184,21.184a4.159,4.159,0,0,1-2.705,1.127Z" transform="translate(-123.294 2.586)"/><path d="M172.867,417.959a4.159,4.159,0,0,1-2.7-1.127,3.681,3.681,0,0,1,0-5.409l21.184-21.184a3.825,3.825,0,1,1,5.409,5.409l-21.184,21.184a3.285,3.285,0,0,1-2.705,1.127Z" transform="translate(50.052 -170.761)"/><path d="M408.526,81.676a4.416,4.416,0,0,1-1.578-.225,3.7,3.7,0,0,1-2.028-4.958L416.413,48.55a3.788,3.788,0,1,1,6.986,2.93L411.906,79.424a3.69,3.69,0,0,1-3.381,2.253Z" transform="translate(-90.732 34.14)"/><path d="M251.166,460.8a4.416,4.416,0,0,1-1.578-.225,3.7,3.7,0,0,1-2.028-4.958l11.719-27.944a3.788,3.788,0,0,1,6.986,2.93l-11.493,27.944a4.014,4.014,0,0,1-3.606,2.253Z" transform="translate(3.304 -192.415)"/><path d="M344.311,65.635A3.949,3.949,0,0,1,340.48,61.8V31.832a3.831,3.831,0,0,1,7.662,0V61.8A3.8,3.8,0,0,1,344.311,65.635Z" transform="translate(-52.433 44.999)"/><path d="M344.311,476.115a3.949,3.949,0,0,1-3.831-3.831V442.312a3.831,3.831,0,1,1,7.662,0v29.972A3.949,3.949,0,0,1,344.311,476.115Z" transform="translate(-52.433 -200.297)"/><path d="M262.708,81.725a3.861,3.861,0,0,1-3.606-2.479L247.609,51.528a3.788,3.788,0,1,1,6.986-2.93l11.493,27.718a3.736,3.736,0,0,1-2.028,4.958c-.226.451-.9.451-1.352.451Z" transform="translate(3.254 34.092)"/><path d="M420.068,460.845a3.861,3.861,0,0,1-3.606-2.479l-11.493-27.718a3.788,3.788,0,1,1,6.986-2.93l11.493,27.718a3.736,3.736,0,0,1-2.028,4.958,1.656,1.656,0,0,1-1.352.451Z" transform="translate(-90.781 -192.464)"/><path d="M194.05,127.879a4.159,4.159,0,0,1-2.7-1.127l-21.184-21.184a3.825,3.825,0,0,1,5.409-5.409l21.184,21.184a3.681,3.681,0,0,1,0,5.409,4.166,4.166,0,0,1-2.705,1.127Z" transform="translate(50.053 2.586)"/><path d="M484.13,417.962a4.159,4.159,0,0,1-2.7-1.127l-21.184-21.182a3.825,3.825,0,1,1,5.409-5.409l21.184,21.184a3.681,3.681,0,0,1,0,5.409,3.286,3.286,0,0,1-2.705,1.125Z" transform="translate(-123.294 -170.764)"/><path d="M147.845,196.825a4.416,4.416,0,0,1-1.578-.225l-27.718-11.494a3.788,3.788,0,1,1,2.93-6.986l27.944,11.493a3.7,3.7,0,0,1,2.028,4.958,4.015,4.015,0,0,1-3.606,2.254Z" transform="translate(81.61 -44.501)"/><path d="M526.965,353.851a4.416,4.416,0,0,1-1.578-.225l-27.718-11.719a3.788,3.788,0,1,1,2.93-6.986l27.944,11.493a3.7,3.7,0,0,1,2.028,4.958,3.863,3.863,0,0,1-3.606,2.479Z" transform="translate(-144.946 -138.203)"/></g><g transform="translate(226.896 2076.978) rotate(-60)" opacity="0.49"><path d="M266.294,252.842A56.227,56.227,0,0,1,244.659,144.67a54.9,54.9,0,0,1,43.042,0,56.227,56.227,0,0,1,0,103.89,54.2,54.2,0,0,1-21.408,4.282Zm0-105.015a49.58,49.58,0,0,0-18.7,3.831,48.65,48.65,0,1,0,37.182,0A43.852,43.852,0,0,0,266.294,147.827Z" transform="translate(25.584 -22.095)"/><path d="M299.911,291.2a36.131,36.131,0,0,1-12.846-2.479,33.709,33.709,0,0,1-18.253-44.169,3.788,3.788,0,1,1,6.986,2.93c-5.634,13.3.9,28.62,14.2,34.254s28.62-.9,34.254-14.2a3.788,3.788,0,1,1,6.986,2.93A34.046,34.046,0,0,1,299.911,291.2Z" transform="translate(-8.033 -82.986)"/><path d="M334.046,233.466a4.416,4.416,0,0,1-1.578-.225,3.7,3.7,0,0,1-2.028-4.958l5.634-13.971a3.788,3.788,0,1,1,6.986,2.93l-5.634,13.971a3.471,3.471,0,0,1-3.38,2.253Z" transform="translate(-46.224 -64.916)"/><path d="M368.766,247.466a4.417,4.417,0,0,1-1.578-.225,3.7,3.7,0,0,1-2.028-4.958l5.859-13.971a3.788,3.788,0,0,1,6.986,2.93l-5.859,13.971a3.69,3.69,0,0,1-3.38,2.253Z" transform="translate(-66.972 -73.282)"/><path d="M542.283,278.143H512.311a3.831,3.831,0,1,1,0-7.662h29.972a3.831,3.831,0,0,1,0,7.662Z" transform="translate(-152.827 -99.903)"/><path d="M131.8,278.143H101.831a3.831,3.831,0,0,1,0-7.662H131.8a3.949,3.949,0,0,1,3.831,3.831A3.8,3.8,0,0,1,131.8,278.143Z" transform="translate(92.468 -99.903)"/><path d="M508.822,241.182a4.068,4.068,0,0,1-3.831-3.155,3.828,3.828,0,0,1,2.93-4.507l14.647-2.93a3.8,3.8,0,0,1,1.577,7.437l-14.647,2.93c-.225,0-.451.225-.676.225Z" transform="translate(-150.69 -76.013)"/><path d="M143.142,313.982a4.068,4.068,0,0,1-3.831-3.155,3.828,3.828,0,0,1,2.93-4.507l14.647-2.93a3.8,3.8,0,1,1,1.577,7.437l-14.647,2.93c-.226,0-.451.225-.676.225Z" transform="translate(67.834 -119.517)"/><path d="M483.843,172a3.882,3.882,0,0,1-3.155-1.8,3.991,3.991,0,0,1,1.127-5.409l12.395-8.338a3.907,3.907,0,0,1,4.282,6.536L486.1,171.321a2.964,2.964,0,0,1-2.254.676Z" transform="translate(-135.852 -31.391)"/><path d="M173.6,379.757a3.882,3.882,0,0,1-3.155-1.8,3.991,3.991,0,0,1,1.127-5.409l12.395-8.338a3.907,3.907,0,1,1,4.282,6.536l-12.395,8.338a3.815,3.815,0,0,1-2.254.676Z" transform="translate(49.542 -155.545)"/><path d="M437.923,120.052a3.14,3.14,0,0,1-2.028-.676,3.948,3.948,0,0,1-1.127-5.409l8.338-12.395a3.907,3.907,0,1,1,6.536,4.282l-8.564,12.4a4.222,4.222,0,0,1-3.155,1.8Z" transform="translate(-108.411 2.075)"/><path d="M230.163,430.292a3.141,3.141,0,0,1-2.028-.676,3.948,3.948,0,0,1-1.127-5.409l8.338-12.395a3.907,3.907,0,0,1,6.536,4.282l-8.338,12.395a4.282,4.282,0,0,1-3.381,1.8Z" transform="translate(15.743 -183.319)"/><path d="M377.557,91.957h-.676a3.831,3.831,0,0,1-2.93-4.507l2.93-14.647a3.8,3.8,0,1,1,7.437,1.577l-2.93,14.647a4.361,4.361,0,0,1-3.831,2.93Z" transform="translate(-72.383 20.028)"/><path d="M304.757,457.637h-.676a3.831,3.831,0,0,1-2.93-4.507l2.93-14.647a3.8,3.8,0,1,1,7.437,1.577l-2.93,14.647a3.86,3.86,0,0,1-3.831,2.93Z" transform="translate(-28.879 -198.496)"/><path d="M306.791,91.623a4.068,4.068,0,0,1-3.831-3.155l-2.93-14.647a3.8,3.8,0,1,1,7.437-1.577l2.93,14.647a3.828,3.828,0,0,1-2.93,4.507c0,.225-.226.225-.676.225Z" transform="translate(-28.209 20.363)"/><path d="M379.591,457.3a4.068,4.068,0,0,1-3.831-3.155L372.83,439.5a3.8,3.8,0,0,1,7.437-1.577l2.93,14.647a3.828,3.828,0,0,1-2.93,4.507c0,.225-.226.225-.676.225Z" transform="translate(-71.713 -198.161)"/><path d="M238.5,120.052a3.882,3.882,0,0,1-3.155-1.8l-8.338-12.395a3.907,3.907,0,1,1,6.536-4.282l8.338,12.395a3.991,3.991,0,0,1-1.127,5.409,3.811,3.811,0,0,1-2.254.676Z" transform="translate(15.742 2.075)"/><path d="M446.261,430.292a3.882,3.882,0,0,1-3.155-1.8l-8.338-12.395a3.907,3.907,0,1,1,6.536-4.282l8.338,12.395a3.991,3.991,0,0,1-1.127,5.409,5.027,5.027,0,0,1-2.254.676Z" transform="translate(-108.411 -183.319)"/><path d="M186.556,172a3.14,3.14,0,0,1-2.028-.676l-12.395-8.338a3.907,3.907,0,0,1,4.282-6.536l12.395,8.338a3.948,3.948,0,0,1,1.127,5.409,3.988,3.988,0,0,1-3.381,1.8Z" transform="translate(49.208 -31.391)"/><path d="M496.461,379.754a3.141,3.141,0,0,1-2.028-.676l-12.621-8.339a3.907,3.907,0,0,1,4.282-6.536l12.395,8.338a3.948,3.948,0,0,1,1.127,5.409,4.224,4.224,0,0,1-3.155,1.8Z" transform="translate(-135.85 -155.543)"/><path d="M158.126,241.517h-.676l-14.647-2.93a3.8,3.8,0,0,1,1.577-7.437l14.647,2.93a3.831,3.831,0,0,1,2.93,4.507,4.123,4.123,0,0,1-3.831,2.93Z" transform="translate(67.498 -76.348)"/><path d="M523.806,314.317h-.676l-14.647-2.93a3.8,3.8,0,0,1,1.577-7.437l14.647,2.93a3.831,3.831,0,0,1,2.93,4.507,4.123,4.123,0,0,1-3.831,2.93Z" transform="translate(-151.026 -119.852)"/><path d="M499.294,196.539a3.861,3.861,0,0,1-3.606-2.479,3.736,3.736,0,0,1,2.028-4.958l27.718-11.493a3.788,3.788,0,1,1,2.93,6.986l-27.718,11.493a1.656,1.656,0,0,1-1.352.451Z" transform="translate(-144.994 -44.215)"/><path d="M120.174,353.9a3.861,3.861,0,0,1-3.606-2.479,3.736,3.736,0,0,1,2.028-4.958l27.718-11.493a3.788,3.788,0,1,1,2.93,6.986l-27.718,11.493a3.189,3.189,0,0,1-1.352.451Z" transform="translate(81.562 -138.251)"/><path d="M462.947,127.879a4.159,4.159,0,0,1-2.7-1.127,3.681,3.681,0,0,1,0-5.409l21.184-21.184a3.825,3.825,0,0,1,5.409,5.409l-21.184,21.184a4.159,4.159,0,0,1-2.705,1.127Z" transform="translate(-123.294 2.586)"/><path d="M172.867,417.959a4.159,4.159,0,0,1-2.7-1.127,3.681,3.681,0,0,1,0-5.409l21.184-21.184a3.825,3.825,0,1,1,5.409,5.409l-21.184,21.184a3.285,3.285,0,0,1-2.705,1.127Z" transform="translate(50.052 -170.761)"/><path d="M408.526,81.676a4.416,4.416,0,0,1-1.578-.225,3.7,3.7,0,0,1-2.028-4.958L416.413,48.55a3.788,3.788,0,1,1,6.986,2.93L411.906,79.424a3.69,3.69,0,0,1-3.381,2.253Z" transform="translate(-90.732 34.14)"/><path d="M251.166,460.8a4.416,4.416,0,0,1-1.578-.225,3.7,3.7,0,0,1-2.028-4.958l11.719-27.944a3.788,3.788,0,0,1,6.986,2.93l-11.493,27.944a4.014,4.014,0,0,1-3.606,2.253Z" transform="translate(3.304 -192.415)"/><path d="M344.311,65.635A3.949,3.949,0,0,1,340.48,61.8V31.832a3.831,3.831,0,0,1,7.662,0V61.8A3.8,3.8,0,0,1,344.311,65.635Z" transform="translate(-52.433 44.999)"/><path d="M344.311,476.115a3.949,3.949,0,0,1-3.831-3.831V442.312a3.831,3.831,0,1,1,7.662,0v29.972A3.949,3.949,0,0,1,344.311,476.115Z" transform="translate(-52.433 -200.297)"/><path d="M262.708,81.725a3.861,3.861,0,0,1-3.606-2.479L247.609,51.528a3.788,3.788,0,1,1,6.986-2.93l11.493,27.718a3.736,3.736,0,0,1-2.028,4.958c-.226.451-.9.451-1.352.451Z" transform="translate(3.254 34.092)"/><path d="M420.068,460.845a3.861,3.861,0,0,1-3.606-2.479l-11.493-27.718a3.788,3.788,0,1,1,6.986-2.93l11.493,27.718a3.736,3.736,0,0,1-2.028,4.958,1.656,1.656,0,0,1-1.352.451Z" transform="translate(-90.781 -192.464)"/><path d="M194.05,127.879a4.159,4.159,0,0,1-2.7-1.127l-21.184-21.184a3.825,3.825,0,0,1,5.409-5.409l21.184,21.184a3.681,3.681,0,0,1,0,5.409,4.166,4.166,0,0,1-2.705,1.127Z" transform="translate(50.053 2.586)"/><path d="M484.13,417.962a4.159,4.159,0,0,1-2.7-1.127l-21.184-21.182a3.825,3.825,0,1,1,5.409-5.409l21.184,21.184a3.681,3.681,0,0,1,0,5.409,3.286,3.286,0,0,1-2.705,1.125Z" transform="translate(-123.294 -170.764)"/><path d="M147.845,196.825a4.416,4.416,0,0,1-1.578-.225l-27.718-11.494a3.788,3.788,0,1,1,2.93-6.986l27.944,11.493a3.7,3.7,0,0,1,2.028,4.958,4.015,4.015,0,0,1-3.606,2.254Z" transform="translate(81.61 -44.501)"/><path d="M526.965,353.851a4.416,4.416,0,0,1-1.578-.225l-27.718-11.719a3.788,3.788,0,1,1,2.93-6.986l27.944,11.493a3.7,3.7,0,0,1,2.028,4.958,3.863,3.863,0,0,1-3.606,2.479Z" transform="translate(-144.946 -138.203)"/></g><g transform="translate(1176.9 564.576) rotate(118)" opacity="0.49"><path d="M266.294,252.842A56.227,56.227,0,0,1,244.659,144.67a54.9,54.9,0,0,1,43.042,0,56.227,56.227,0,0,1,0,103.89,54.2,54.2,0,0,1-21.408,4.282Zm0-105.015a49.58,49.58,0,0,0-18.7,3.831,48.65,48.65,0,1,0,37.182,0A43.852,43.852,0,0,0,266.294,147.827Z" transform="translate(25.584 -22.095)"/><path d="M299.911,291.2a36.131,36.131,0,0,1-12.846-2.479,33.709,33.709,0,0,1-18.253-44.169,3.788,3.788,0,1,1,6.986,2.93c-5.634,13.3.9,28.62,14.2,34.254s28.62-.9,34.254-14.2a3.788,3.788,0,1,1,6.986,2.93A34.046,34.046,0,0,1,299.911,291.2Z" transform="translate(-8.033 -82.986)"/><path d="M334.046,233.466a4.416,4.416,0,0,1-1.578-.225,3.7,3.7,0,0,1-2.028-4.958l5.634-13.971a3.788,3.788,0,1,1,6.986,2.93l-5.634,13.971a3.471,3.471,0,0,1-3.38,2.253Z" transform="translate(-46.224 -64.916)"/><path d="M368.766,247.466a4.417,4.417,0,0,1-1.578-.225,3.7,3.7,0,0,1-2.028-4.958l5.859-13.971a3.788,3.788,0,0,1,6.986,2.93l-5.859,13.971a3.69,3.69,0,0,1-3.38,2.253Z" transform="translate(-66.972 -73.282)"/><path d="M542.283,278.143H512.311a3.831,3.831,0,1,1,0-7.662h29.972a3.831,3.831,0,0,1,0,7.662Z" transform="translate(-152.827 -99.903)"/><path d="M131.8,278.143H101.831a3.831,3.831,0,0,1,0-7.662H131.8a3.949,3.949,0,0,1,3.831,3.831A3.8,3.8,0,0,1,131.8,278.143Z" transform="translate(92.468 -99.903)"/><path d="M508.822,241.182a4.068,4.068,0,0,1-3.831-3.155,3.828,3.828,0,0,1,2.93-4.507l14.647-2.93a3.8,3.8,0,0,1,1.577,7.437l-14.647,2.93c-.225,0-.451.225-.676.225Z" transform="translate(-150.69 -76.013)"/><path d="M143.142,313.982a4.068,4.068,0,0,1-3.831-3.155,3.828,3.828,0,0,1,2.93-4.507l14.647-2.93a3.8,3.8,0,1,1,1.577,7.437l-14.647,2.93c-.226,0-.451.225-.676.225Z" transform="translate(67.834 -119.517)"/><path d="M483.843,172a3.882,3.882,0,0,1-3.155-1.8,3.991,3.991,0,0,1,1.127-5.409l12.395-8.338a3.907,3.907,0,0,1,4.282,6.536L486.1,171.321a2.964,2.964,0,0,1-2.254.676Z" transform="translate(-135.852 -31.391)"/><path d="M173.6,379.757a3.882,3.882,0,0,1-3.155-1.8,3.991,3.991,0,0,1,1.127-5.409l12.395-8.338a3.907,3.907,0,1,1,4.282,6.536l-12.395,8.338a3.815,3.815,0,0,1-2.254.676Z" transform="translate(49.542 -155.545)"/><path d="M437.923,120.052a3.14,3.14,0,0,1-2.028-.676,3.948,3.948,0,0,1-1.127-5.409l8.338-12.395a3.907,3.907,0,1,1,6.536,4.282l-8.564,12.4a4.222,4.222,0,0,1-3.155,1.8Z" transform="translate(-108.411 2.075)"/><path d="M230.163,430.292a3.141,3.141,0,0,1-2.028-.676,3.948,3.948,0,0,1-1.127-5.409l8.338-12.395a3.907,3.907,0,0,1,6.536,4.282l-8.338,12.395a4.282,4.282,0,0,1-3.381,1.8Z" transform="translate(15.743 -183.319)"/><path d="M377.557,91.957h-.676a3.831,3.831,0,0,1-2.93-4.507l2.93-14.647a3.8,3.8,0,1,1,7.437,1.577l-2.93,14.647a4.361,4.361,0,0,1-3.831,2.93Z" transform="translate(-72.383 20.028)"/><path d="M304.757,457.637h-.676a3.831,3.831,0,0,1-2.93-4.507l2.93-14.647a3.8,3.8,0,1,1,7.437,1.577l-2.93,14.647a3.86,3.86,0,0,1-3.831,2.93Z" transform="translate(-28.879 -198.496)"/><path d="M306.791,91.623a4.068,4.068,0,0,1-3.831-3.155l-2.93-14.647a3.8,3.8,0,1,1,7.437-1.577l2.93,14.647a3.828,3.828,0,0,1-2.93,4.507c0,.225-.226.225-.676.225Z" transform="translate(-28.209 20.363)"/><path d="M379.591,457.3a4.068,4.068,0,0,1-3.831-3.155L372.83,439.5a3.8,3.8,0,0,1,7.437-1.577l2.93,14.647a3.828,3.828,0,0,1-2.93,4.507c0,.225-.226.225-.676.225Z" transform="translate(-71.713 -198.161)"/><path d="M238.5,120.052a3.882,3.882,0,0,1-3.155-1.8l-8.338-12.395a3.907,3.907,0,1,1,6.536-4.282l8.338,12.395a3.991,3.991,0,0,1-1.127,5.409,3.811,3.811,0,0,1-2.254.676Z" transform="translate(15.742 2.075)"/><path d="M446.261,430.292a3.882,3.882,0,0,1-3.155-1.8l-8.338-12.395a3.907,3.907,0,1,1,6.536-4.282l8.338,12.395a3.991,3.991,0,0,1-1.127,5.409,5.027,5.027,0,0,1-2.254.676Z" transform="translate(-108.411 -183.319)"/><path d="M186.556,172a3.14,3.14,0,0,1-2.028-.676l-12.395-8.338a3.907,3.907,0,0,1,4.282-6.536l12.395,8.338a3.948,3.948,0,0,1,1.127,5.409,3.988,3.988,0,0,1-3.381,1.8Z" transform="translate(49.208 -31.391)"/><path d="M496.461,379.754a3.141,3.141,0,0,1-2.028-.676l-12.621-8.339a3.907,3.907,0,0,1,4.282-6.536l12.395,8.338a3.948,3.948,0,0,1,1.127,5.409,4.224,4.224,0,0,1-3.155,1.8Z" transform="translate(-135.85 -155.543)"/><path d="M158.126,241.517h-.676l-14.647-2.93a3.8,3.8,0,0,1,1.577-7.437l14.647,2.93a3.831,3.831,0,0,1,2.93,4.507,4.123,4.123,0,0,1-3.831,2.93Z" transform="translate(67.498 -76.348)"/><path d="M523.806,314.317h-.676l-14.647-2.93a3.8,3.8,0,0,1,1.577-7.437l14.647,2.93a3.831,3.831,0,0,1,2.93,4.507,4.123,4.123,0,0,1-3.831,2.93Z" transform="translate(-151.026 -119.852)"/><path d="M499.294,196.539a3.861,3.861,0,0,1-3.606-2.479,3.736,3.736,0,0,1,2.028-4.958l27.718-11.493a3.788,3.788,0,1,1,2.93,6.986l-27.718,11.493a1.656,1.656,0,0,1-1.352.451Z" transform="translate(-144.994 -44.215)"/><path d="M120.174,353.9a3.861,3.861,0,0,1-3.606-2.479,3.736,3.736,0,0,1,2.028-4.958l27.718-11.493a3.788,3.788,0,1,1,2.93,6.986l-27.718,11.493a3.189,3.189,0,0,1-1.352.451Z" transform="translate(81.562 -138.251)"/><path d="M462.947,127.879a4.159,4.159,0,0,1-2.7-1.127,3.681,3.681,0,0,1,0-5.409l21.184-21.184a3.825,3.825,0,0,1,5.409,5.409l-21.184,21.184a4.159,4.159,0,0,1-2.705,1.127Z" transform="translate(-123.294 2.586)"/><path d="M172.867,417.959a4.159,4.159,0,0,1-2.7-1.127,3.681,3.681,0,0,1,0-5.409l21.184-21.184a3.825,3.825,0,1,1,5.409,5.409l-21.184,21.184a3.285,3.285,0,0,1-2.705,1.127Z" transform="translate(50.052 -170.761)"/><path d="M408.526,81.676a4.416,4.416,0,0,1-1.578-.225,3.7,3.7,0,0,1-2.028-4.958L416.413,48.55a3.788,3.788,0,1,1,6.986,2.93L411.906,79.424a3.69,3.69,0,0,1-3.381,2.253Z" transform="translate(-90.732 34.14)"/><path d="M251.166,460.8a4.416,4.416,0,0,1-1.578-.225,3.7,3.7,0,0,1-2.028-4.958l11.719-27.944a3.788,3.788,0,0,1,6.986,2.93l-11.493,27.944a4.014,4.014,0,0,1-3.606,2.253Z" transform="translate(3.304 -192.415)"/><path d="M344.311,65.635A3.949,3.949,0,0,1,340.48,61.8V31.832a3.831,3.831,0,0,1,7.662,0V61.8A3.8,3.8,0,0,1,344.311,65.635Z" transform="translate(-52.433 44.999)"/><path d="M344.311,476.115a3.949,3.949,0,0,1-3.831-3.831V442.312a3.831,3.831,0,1,1,7.662,0v29.972A3.949,3.949,0,0,1,344.311,476.115Z" transform="translate(-52.433 -200.297)"/><path d="M262.708,81.725a3.861,3.861,0,0,1-3.606-2.479L247.609,51.528a3.788,3.788,0,1,1,6.986-2.93l11.493,27.718a3.736,3.736,0,0,1-2.028,4.958c-.226.451-.9.451-1.352.451Z" transform="translate(3.254 34.092)"/><path d="M420.068,460.845a3.861,3.861,0,0,1-3.606-2.479l-11.493-27.718a3.788,3.788,0,1,1,6.986-2.93l11.493,27.718a3.736,3.736,0,0,1-2.028,4.958,1.656,1.656,0,0,1-1.352.451Z" transform="translate(-90.781 -192.464)"/><path d="M194.05,127.879a4.159,4.159,0,0,1-2.7-1.127l-21.184-21.184a3.825,3.825,0,0,1,5.409-5.409l21.184,21.184a3.681,3.681,0,0,1,0,5.409,4.166,4.166,0,0,1-2.705,1.127Z" transform="translate(50.053 2.586)"/><path d="M484.13,417.962a4.159,4.159,0,0,1-2.7-1.127l-21.184-21.182a3.825,3.825,0,1,1,5.409-5.409l21.184,21.184a3.681,3.681,0,0,1,0,5.409,3.286,3.286,0,0,1-2.705,1.125Z" transform="translate(-123.294 -170.764)"/><path d="M147.845,196.825a4.416,4.416,0,0,1-1.578-.225l-27.718-11.494a3.788,3.788,0,1,1,2.93-6.986l27.944,11.493a3.7,3.7,0,0,1,2.028,4.958,4.015,4.015,0,0,1-3.606,2.254Z" transform="translate(81.61 -44.501)"/><path d="M526.965,353.851a4.416,4.416,0,0,1-1.578-.225l-27.718-11.719a3.788,3.788,0,1,1,2.93-6.986l27.944,11.493a3.7,3.7,0,0,1,2.028,4.958,3.863,3.863,0,0,1-3.606,2.479Z" transform="translate(-144.946 -138.203)"/></g><g transform="translate(532 1798)" opacity="0.49"><path d="M409.954,162.082a3.574,3.574,0,0,1-.468-.031,3.62,3.62,0,0,1-2.6-1.67,33.714,33.714,0,0,0-28.732-15.93H378.1c-.084,0-.169.005-.253.006a3.614,3.614,0,0,1-3.169-1.808,33.863,33.863,0,0,0-18.883-15.3,3.621,3.621,0,0,1-2.3-4.638,36.22,36.22,0,1,1,58.932,38.393,3.62,3.62,0,0,1-2.473.977Zm-30.1-24.839a40.849,40.849,0,0,1,30.481,15.493,28.644,28.644,0,0,0,6.329-18.084,28.978,28.978,0,0,0-54.971-12.8A41.093,41.093,0,0,1,379.858,137.243Z" transform="translate(-219.967 -199.436)"/><path d="M231.415,269.272H114.244a22.371,22.371,0,0,1-7.837-43.324,24.727,24.727,0,0,1,23.118-29.51A41.11,41.11,0,0,1,205,177.7a41.11,41.11,0,0,1,39.407,40.784,27.057,27.057,0,0,1-13,50.788ZM130.648,203.657A17.477,17.477,0,0,0,114.266,227.2a3.622,3.622,0,0,1-2.747,4.823,15.125,15.125,0,0,0,2.724,30H231.414a19.814,19.814,0,0,0,7.882-37.992,3.623,3.623,0,0,1-2.174-3.505c.03-.581.044-1.169.044-1.75a33.867,33.867,0,0,0-33.872-33.873h-.049c-.084,0-.169.005-.254.006a3.62,3.62,0,0,1-3.169-1.808,33.871,33.871,0,0,0-63.21,16.884c0,.057,0,.109,0,.16a3.62,3.62,0,0,1-4.021,3.614,18.081,18.081,0,0,0-1.947-.111Z" transform="translate(-45.109 -239.892)"/></g><g transform="translate(180 356)" opacity="0.49"><path d="M409.954,162.082a3.574,3.574,0,0,1-.468-.031,3.62,3.62,0,0,1-2.6-1.67,33.714,33.714,0,0,0-28.732-15.93H378.1c-.084,0-.169.005-.253.006a3.614,3.614,0,0,1-3.169-1.808,33.863,33.863,0,0,0-18.883-15.3,3.621,3.621,0,0,1-2.3-4.638,36.22,36.22,0,1,1,58.932,38.393,3.62,3.62,0,0,1-2.473.977Zm-30.1-24.839a40.849,40.849,0,0,1,30.481,15.493,28.644,28.644,0,0,0,6.329-18.084,28.978,28.978,0,0,0-54.971-12.8A41.093,41.093,0,0,1,379.858,137.243Z" transform="translate(-219.967 -199.436)"/><path d="M231.415,269.272H114.244a22.371,22.371,0,0,1-7.837-43.324,24.727,24.727,0,0,1,23.118-29.51A41.11,41.11,0,0,1,205,177.7a41.11,41.11,0,0,1,39.407,40.784,27.057,27.057,0,0,1-13,50.788ZM130.648,203.657A17.477,17.477,0,0,0,114.266,227.2a3.622,3.622,0,0,1-2.747,4.823,15.125,15.125,0,0,0,2.724,30H231.414a19.814,19.814,0,0,0,7.882-37.992,3.623,3.623,0,0,1-2.174-3.505c.03-.581.044-1.169.044-1.75a33.867,33.867,0,0,0-33.872-33.873h-.049c-.084,0-.169.005-.254.006a3.62,3.62,0,0,1-3.169-1.808,33.871,33.871,0,0,0-63.21,16.884c0,.057,0,.109,0,.16a3.62,3.62,0,0,1-4.021,3.614,18.081,18.081,0,0,0-1.947-.111Z" transform="translate(-45.109 -239.892)"/></g><g transform="translate(950 271)" opacity="0.49"><path d="M409.954,162.082a3.574,3.574,0,0,1-.468-.031,3.62,3.62,0,0,1-2.6-1.67,33.714,33.714,0,0,0-28.732-15.93H378.1c-.084,0-.169.005-.253.006a3.614,3.614,0,0,1-3.169-1.808,33.863,33.863,0,0,0-18.883-15.3,3.621,3.621,0,0,1-2.3-4.638,36.22,36.22,0,1,1,58.932,38.393,3.62,3.62,0,0,1-2.473.977Zm-30.1-24.839a40.849,40.849,0,0,1,30.481,15.493,28.644,28.644,0,0,0,6.329-18.084,28.978,28.978,0,0,0-54.971-12.8A41.093,41.093,0,0,1,379.858,137.243Z" transform="translate(-219.967 -199.436)"/><path d="M231.415,269.272H114.244a22.371,22.371,0,0,1-7.837-43.324,24.727,24.727,0,0,1,23.118-29.51A41.11,41.11,0,0,1,205,177.7a41.11,41.11,0,0,1,39.407,40.784,27.057,27.057,0,0,1-13,50.788ZM130.648,203.657A17.477,17.477,0,0,0,114.266,227.2a3.622,3.622,0,0,1-2.747,4.823,15.125,15.125,0,0,0,2.724,30H231.414a19.814,19.814,0,0,0,7.882-37.992,3.623,3.623,0,0,1-2.174-3.505c.03-.581.044-1.169.044-1.75a33.867,33.867,0,0,0-33.872-33.873h-.049c-.084,0-.169.005-.254.006a3.62,3.62,0,0,1-3.169-1.808,33.871,33.871,0,0,0-63.21,16.884c0,.057,0,.109,0,.16a3.62,3.62,0,0,1-4.021,3.614,18.081,18.081,0,0,0-1.947-.111Z" transform="translate(-45.109 -239.892)"/></g><g transform="translate(947.841 650)" opacity="0.49"><path d="M367.551,162.082a3.745,3.745,0,0,0,3.135-1.7,34.61,34.61,0,0,1,29.347-15.93h.05c.086,0,.173.005.259.006a3.707,3.707,0,0,0,3.237-1.808,34.45,34.45,0,0,1,19.287-15.3,3.678,3.678,0,0,0,2.172-1.835,3.547,3.547,0,0,0,.178-2.8,36.987,36.987,0,0,0-34.93-24.279c-20.4,0-36.993,16.247-36.993,36.218a36,36,0,0,0,11.73,26.454,3.741,3.741,0,0,0,2.526.977Zm30.74-24.839a42.024,42.024,0,0,0-31.134,15.493,28.27,28.27,0,0,1-6.464-18.084c0-15.975,13.276-28.973,29.593-28.973a29.7,29.7,0,0,1,26.555,16.171A41.755,41.755,0,0,0,398.292,137.243Z" transform="translate(-296.914 -199.436)"/><path d="M119.508,269.272H239.186A22.638,22.638,0,0,0,262.034,246.9a22.377,22.377,0,0,0-14.843-20.955,24.3,24.3,0,0,0,.482-4.823c0-13.25-10.706-24.1-24.095-24.687-1.867-20.992-19.919-37.519-41.836-37.519a42.727,42.727,0,0,0-12.962,2A41.863,41.863,0,0,0,146.488,177.7,41.948,41.948,0,0,0,112.613,197a40.364,40.364,0,0,0-6.376,21.488,26.971,26.971,0,0,0-14.362,23.732c0,14.919,12.4,27.056,27.635,27.056Zm102.924-65.615a17.68,17.68,0,0,1,17.843,17.469,17.079,17.079,0,0,1-1.111,6.078,3.554,3.554,0,0,0,.254,3.053,3.7,3.7,0,0,0,2.552,1.771,15.1,15.1,0,0,1-2.782,30H119.509a20.05,20.05,0,0,1-20.237-19.813,19.808,19.808,0,0,1,12.186-18.179,3.617,3.617,0,0,0,2.221-3.505c-.03-.581-.045-1.169-.045-1.75a33.25,33.25,0,0,1,5.25-17.943,34.61,34.61,0,0,1,29.347-15.93h.05c.086,0,.173.005.259.006a3.714,3.714,0,0,0,3.237-1.808,34.45,34.45,0,0,1,19.287-15.3,35.215,35.215,0,0,1,10.677-1.649c19.064,0,34.575,15.172,34.6,33.831,0,.057,0,.109,0,.16a3.594,3.594,0,0,0,1.226,2.708,3.745,3.745,0,0,0,2.881.905,18.859,18.859,0,0,1,1.988-.111Z" transform="translate(-45.109 -239.892)"/></g><g transform="translate(70.385 -9.438) rotate(69)" opacity="0.49"><path d="M187.529,95.2a5.739,5.739,0,0,0-3.019,1.023l-62.225,49.125c-1.6,1.587-2.722,5-1.075,7.113a5.087,5.087,0,0,0,7.113.615l59.207-46.718,59.207,46.718a5.03,5.03,0,0,0,7.113-.615,5.574,5.574,0,0,0-1.075-7.113l-22.668-17.91V100.114a4.914,4.914,0,0,0-4.913-4.913h-13.1a4.914,4.914,0,0,0-4.913,4.913v9.262L190.55,96.225a5,5,0,0,0-3.019-1.023ZM217,105.027h3.275v14.687L217,117.1ZM148.23,143.151,138.4,150.93v47.438h0a4.914,4.914,0,0,0,4.913,4.913h31.112a4.914,4.914,0,0,0,4.913-4.913v-19.65a8.187,8.187,0,0,1,16.375,0v19.65a4.914,4.914,0,0,0,4.913,4.913h31.112a4.914,4.914,0,0,0,4.913-4.913V150.929l-9.826-7.779v50.3H205.541V178.713a18.013,18.013,0,0,0-36.026,0V193.45H148.228v-50.3Z" transform="translate(-94.531 -129.201)"/></g><g transform="matrix(0.839, -0.545, 0.545, 0.839, -21.909, 1881.424)" opacity="0.49"><path d="M187.529,95.2a5.739,5.739,0,0,0-3.019,1.023l-62.225,49.125c-1.6,1.587-2.722,5-1.075,7.113a5.087,5.087,0,0,0,7.113.615l59.207-46.718,59.207,46.718a5.03,5.03,0,0,0,7.113-.615,5.574,5.574,0,0,0-1.075-7.113l-22.668-17.91V100.114a4.914,4.914,0,0,0-4.913-4.913h-13.1a4.914,4.914,0,0,0-4.913,4.913v9.262L190.55,96.225a5,5,0,0,0-3.019-1.023ZM217,105.027h3.275v14.687L217,117.1ZM148.23,143.151,138.4,150.93v47.438h0a4.914,4.914,0,0,0,4.913,4.913h31.112a4.914,4.914,0,0,0,4.913-4.913v-19.65a8.187,8.187,0,0,1,16.375,0v19.65a4.914,4.914,0,0,0,4.913,4.913h31.112a4.914,4.914,0,0,0,4.913-4.913V150.929l-9.826-7.779v50.3H205.541V178.713a18.013,18.013,0,0,0-36.026,0V193.45H148.228v-50.3Z" transform="translate(-94.531 -129.201)"/></g><g transform="matrix(0.839, -0.545, 0.545, 0.839, -89.029, 591.46)" opacity="0.49"><path d="M195.649,95.2a6.434,6.434,0,0,0-3.384,1.147l-69.751,55.067c-1.791,1.778-3.051,5.609-1.2,7.973a5.7,5.7,0,0,0,7.973.689l66.369-52.369,66.369,52.369a5.638,5.638,0,0,0,7.973-.689,6.249,6.249,0,0,0-1.2-7.973l-25.41-20.076V100.708A5.508,5.508,0,0,0,237.87,95.2H223.185a5.508,5.508,0,0,0-5.507,5.507v10.383L199.036,96.349a5.606,5.606,0,0,0-3.384-1.147Zm33.04,11.014h3.671v16.463l-3.671-2.926ZM151.6,148.951l-11.014,8.72v53.175h0a5.508,5.508,0,0,0,5.507,5.507h34.876a5.508,5.508,0,0,0,5.507-5.507V188.818a9.178,9.178,0,0,1,18.356,0v22.026a5.508,5.508,0,0,0,5.507,5.507h34.876a5.508,5.508,0,0,0,5.507-5.507V157.669L239.7,148.95v56.384H215.84V188.815a20.192,20.192,0,1,0-40.384,0v16.519H151.594V148.95Z" transform="translate(-94.531 -129.201)"/></g><g transform="translate(-31.242 661.013) rotate(-45)" opacity="0.49"><path d="M204.828,94.6h16.752a8.387,8.387,0,0,0,8.376-8.376V80.634a8.387,8.387,0,0,0-8.376-8.376H204.828a8.387,8.387,0,0,0-8.376,8.376v5.584A8.388,8.388,0,0,0,204.828,94.6Zm-2.792-13.96a2.793,2.793,0,0,1,2.792-2.792h16.752a2.793,2.793,0,0,1,2.792,2.792V86.22a2.793,2.793,0,0,1-2.792,2.792H204.828a2.793,2.793,0,0,1-2.792-2.792Z" transform="translate(64.635 768.077)"/><path d="M403.538,72.258a8.387,8.387,0,0,0-8.376,8.376v5.584a8.387,8.387,0,0,0,8.376,8.376h16.752a8.387,8.387,0,0,0,8.376-8.376V80.634a8.387,8.387,0,0,0-8.376-8.376Zm19.544,8.376v5.584a2.793,2.793,0,0,1-2.792,2.792H403.539a2.793,2.793,0,0,1-2.792-2.792V80.634a2.793,2.793,0,0,1,2.792-2.792h16.752A2.792,2.792,0,0,1,423.083,80.634Z" transform="translate(-72.651 768.077)"/><path d="M332.759,270.97H304.84v2.792a13.96,13.96,0,0,0,27.919,0ZM318.8,282.138a8.392,8.392,0,0,1-7.9-5.584h15.8a8.394,8.394,0,0,1-7.9,5.584Z" transform="translate(-10.248 630.789)"/><path d="M234.728,106.1h-2.89a6.742,6.742,0,0,0-11.408-3.61l-3.61,3.61h-31.5a30.8,30.8,0,0,0,11.366-15.027l9.18-6.12a8.359,8.359,0,0,0,3.73-6.97V49.952a19.472,19.472,0,0,0,5.584-13.65V30.717A19.569,19.569,0,0,0,199.9,11.654,36.293,36.293,0,0,0,173.305,0H139.8A36.294,36.294,0,0,0,113.21,11.652,19.569,19.569,0,0,0,97.922,30.716V36.3a19.47,19.47,0,0,0,5.584,13.65V77.983a8.357,8.357,0,0,0,3.73,6.968l9.18,6.123A30.851,30.851,0,0,0,127.783,106.1h-31.5l-3.61-3.61a6.742,6.742,0,0,0-11.408,3.61h-2.89A8.387,8.387,0,0,0,70,114.476v5.584a8.387,8.387,0,0,0,8.376,8.376h2.792v2.792a13.975,13.975,0,0,0,13.96,13.96H98.2a13.984,13.984,0,0,0,13.678,11.168h3.074a13.941,13.941,0,0,0,12.034,11l-2.874,5.751h64.877l-2.876-5.751a13.943,13.943,0,0,0,12.034-11h3.077a13.985,13.985,0,0,0,13.678-11.168h3.074a13.975,13.975,0,0,0,13.96-13.96v-2.792h2.792a8.387,8.387,0,0,0,8.376-8.376v-5.584a8.386,8.386,0,0,0-8.376-8.375Zm-47.464,22.336V111.683h27.92v16.752ZM181.68,139.6H176.1v-27.92h5.584ZM97.922,128.436V111.683h27.92v16.752Zm33.5-16.752h5.584V139.6h-5.584Zm16.751,0v2.792a8.363,8.363,0,0,0,5.584,7.862v6.1H142.595V111.683Zm22.336,0v16.752H159.346v-6.1a8.364,8.364,0,0,0,5.584-7.862v-2.792Zm-11.168,2.793a2.792,2.792,0,1,1-5.583,0v-2.792h5.584Zm-16.751,19.543h11.168V139.6H142.595Zm16.751,0h11.168V139.6H159.346Zm43.43-53.712-4.459,2.97c.059-.764.118-1.526.118-2.306V55.621a19.382,19.382,0,0,0,5.584-1.689V77.984a2.786,2.786,0,0,1-1.244,2.323ZM209.6,30.716V36.3a13.975,13.975,0,0,1-13.96,13.96H178.892a13.975,13.975,0,0,1-13.96-13.96V30.716a13.975,13.975,0,0,1,13.96-13.96h16.752a13.975,13.975,0,0,1,13.96,13.96Zm-36.3-25.128a30.707,30.707,0,0,1,17.6,5.584H178.891A19.553,19.553,0,0,0,161.259,22.34H151.85a19.553,19.553,0,0,0-17.632-11.168H122.2a30.7,30.7,0,0,1,17.6-5.583Zm-13.737,33.5h-6.03a19.55,19.55,0,0,0,.223-2.792V30.718a19.55,19.55,0,0,0-.223-2.792h6.03a19.728,19.728,0,0,0-.223,2.792V36.3A19.743,19.743,0,0,0,159.57,39.094Zm-56.064-8.376a13.975,13.975,0,0,1,13.96-13.96h16.752a13.975,13.975,0,0,1,13.96,13.96V36.3a13.975,13.975,0,0,1-13.96,13.96H117.466a13.975,13.975,0,0,1-13.96-13.96Zm6.827,49.591a2.782,2.782,0,0,1-1.242-2.323V53.933a19.361,19.361,0,0,0,5.584,1.689V80.973c0,.779.059,1.544.117,2.306Zm9.925.664V55.845h5.584a11.164,11.164,0,0,0,6.55,10.14,8.238,8.238,0,0,0-.967,3.819,8.376,8.376,0,1,0,8.376-8.376h-2.792a5.59,5.59,0,0,1-5.584-5.584h2.792A19.553,19.553,0,0,0,151.85,44.676h9.409A19.55,19.55,0,0,0,178.89,55.844h2.792a5.59,5.59,0,0,1-5.584,5.584h-2.792a8.376,8.376,0,1,0,8.376,8.376,8.243,8.243,0,0,0-.966-3.819,11.164,11.164,0,0,0,6.55-10.14h5.584V80.973A25.155,25.155,0,0,1,167.723,106.1H145.388a25.153,25.153,0,0,1-25.129-25.128ZM139.8,67.013A2.792,2.792,0,1,1,137.01,69.8,2.793,2.793,0,0,1,139.8,67.013ZM176.1,69.8a2.792,2.792,0,1,1-2.792-2.792A2.793,2.793,0,0,1,176.1,69.8ZM75.586,120.06v-5.584a2.793,2.793,0,0,1,2.792-2.792h8.376v-4.428a1.2,1.2,0,0,1,1.974-.817l3.609,3.609v12.8H78.378a2.792,2.792,0,0,1-2.792-2.792Zm11.168,11.168v-2.792h5.584a5.59,5.59,0,0,0,5.584,5.584v5.584H95.129a8.386,8.386,0,0,1-8.375-8.376ZM103.506,142.4V134.02h11.168v16.752h-2.792a8.386,8.386,0,0,1-8.376-8.376Zm26.965,18-.77,1.544h-1.067a8.387,8.387,0,0,1-8.376-8.376V134.02h5.584v9.034l4.63,9.258a9.03,9.03,0,0,1,0,8.084Zm5-10.579-2.315-4.63h20.61v22.336h-20.61l2.315-4.63a14.623,14.623,0,0,0,0-13.077Zm23.879,17.706V145.188h20.61l-2.315,4.63a14.618,14.618,0,0,0,0,13.077l2.314,4.63Zm25.129-5.583h-1.066l-.77-1.544a9.017,9.017,0,0,1,0-8.08l4.63-9.26V134.02h5.584v19.544a8.388,8.388,0,0,1-8.376,8.376Zm16.751-11.168h-2.792V134.02H209.6V142.4a8.386,8.386,0,0,1-8.376,8.376Zm25.128-19.544a8.387,8.387,0,0,1-8.376,8.376h-2.792V134.02a5.59,5.59,0,0,0,5.584-5.584h5.584Zm11.168-11.168a2.793,2.793,0,0,1-2.792,2.792H220.77v-12.8l3.61-3.61a1.2,1.2,0,0,1,1.973.819v4.428h8.376a2.793,2.793,0,0,1,2.792,2.792Z" transform="translate(151.998 817.996)"/></g><g transform="matrix(0.777, 0.629, -0.629, 0.777, 518.015, 295.3)" opacity="0.49"><path d="M204.828,94.6h16.752a8.387,8.387,0,0,0,8.376-8.376V80.634a8.387,8.387,0,0,0-8.376-8.376H204.828a8.387,8.387,0,0,0-8.376,8.376v5.584A8.388,8.388,0,0,0,204.828,94.6Zm-2.792-13.96a2.793,2.793,0,0,1,2.792-2.792h16.752a2.793,2.793,0,0,1,2.792,2.792V86.22a2.793,2.793,0,0,1-2.792,2.792H204.828a2.793,2.793,0,0,1-2.792-2.792Z" transform="translate(64.635 768.077)"/><path d="M403.538,72.258a8.387,8.387,0,0,0-8.376,8.376v5.584a8.387,8.387,0,0,0,8.376,8.376h16.752a8.387,8.387,0,0,0,8.376-8.376V80.634a8.387,8.387,0,0,0-8.376-8.376Zm19.544,8.376v5.584a2.793,2.793,0,0,1-2.792,2.792H403.539a2.793,2.793,0,0,1-2.792-2.792V80.634a2.793,2.793,0,0,1,2.792-2.792h16.752A2.792,2.792,0,0,1,423.083,80.634Z" transform="translate(-72.651 768.077)"/><path d="M332.759,270.97H304.84v2.792a13.96,13.96,0,0,0,27.919,0ZM318.8,282.138a8.392,8.392,0,0,1-7.9-5.584h15.8a8.394,8.394,0,0,1-7.9,5.584Z" transform="translate(-10.248 630.789)"/><path d="M234.728,106.1h-2.89a6.742,6.742,0,0,0-11.408-3.61l-3.61,3.61h-31.5a30.8,30.8,0,0,0,11.366-15.027l9.18-6.12a8.359,8.359,0,0,0,3.73-6.97V49.952a19.472,19.472,0,0,0,5.584-13.65V30.717A19.569,19.569,0,0,0,199.9,11.654,36.293,36.293,0,0,0,173.305,0H139.8A36.294,36.294,0,0,0,113.21,11.652,19.569,19.569,0,0,0,97.922,30.716V36.3a19.47,19.47,0,0,0,5.584,13.65V77.983a8.357,8.357,0,0,0,3.73,6.968l9.18,6.123A30.851,30.851,0,0,0,127.783,106.1h-31.5l-3.61-3.61a6.742,6.742,0,0,0-11.408,3.61h-2.89A8.387,8.387,0,0,0,70,114.476v5.584a8.387,8.387,0,0,0,8.376,8.376h2.792v2.792a13.975,13.975,0,0,0,13.96,13.96H98.2a13.984,13.984,0,0,0,13.678,11.168h3.074a13.941,13.941,0,0,0,12.034,11l-2.874,5.751h64.877l-2.876-5.751a13.943,13.943,0,0,0,12.034-11h3.077a13.985,13.985,0,0,0,13.678-11.168h3.074a13.975,13.975,0,0,0,13.96-13.96v-2.792h2.792a8.387,8.387,0,0,0,8.376-8.376v-5.584a8.386,8.386,0,0,0-8.376-8.375Zm-47.464,22.336V111.683h27.92v16.752ZM181.68,139.6H176.1v-27.92h5.584ZM97.922,128.436V111.683h27.92v16.752Zm33.5-16.752h5.584V139.6h-5.584Zm16.751,0v2.792a8.363,8.363,0,0,0,5.584,7.862v6.1H142.595V111.683Zm22.336,0v16.752H159.346v-6.1a8.364,8.364,0,0,0,5.584-7.862v-2.792Zm-11.168,2.793a2.792,2.792,0,1,1-5.583,0v-2.792h5.584Zm-16.751,19.543h11.168V139.6H142.595Zm16.751,0h11.168V139.6H159.346Zm43.43-53.712-4.459,2.97c.059-.764.118-1.526.118-2.306V55.621a19.382,19.382,0,0,0,5.584-1.689V77.984a2.786,2.786,0,0,1-1.244,2.323ZM209.6,30.716V36.3a13.975,13.975,0,0,1-13.96,13.96H178.892a13.975,13.975,0,0,1-13.96-13.96V30.716a13.975,13.975,0,0,1,13.96-13.96h16.752a13.975,13.975,0,0,1,13.96,13.96Zm-36.3-25.128a30.707,30.707,0,0,1,17.6,5.584H178.891A19.553,19.553,0,0,0,161.259,22.34H151.85a19.553,19.553,0,0,0-17.632-11.168H122.2a30.7,30.7,0,0,1,17.6-5.583Zm-13.737,33.5h-6.03a19.55,19.55,0,0,0,.223-2.792V30.718a19.55,19.55,0,0,0-.223-2.792h6.03a19.728,19.728,0,0,0-.223,2.792V36.3A19.743,19.743,0,0,0,159.57,39.094Zm-56.064-8.376a13.975,13.975,0,0,1,13.96-13.96h16.752a13.975,13.975,0,0,1,13.96,13.96V36.3a13.975,13.975,0,0,1-13.96,13.96H117.466a13.975,13.975,0,0,1-13.96-13.96Zm6.827,49.591a2.782,2.782,0,0,1-1.242-2.323V53.933a19.361,19.361,0,0,0,5.584,1.689V80.973c0,.779.059,1.544.117,2.306Zm9.925.664V55.845h5.584a11.164,11.164,0,0,0,6.55,10.14,8.238,8.238,0,0,0-.967,3.819,8.376,8.376,0,1,0,8.376-8.376h-2.792a5.59,5.59,0,0,1-5.584-5.584h2.792A19.553,19.553,0,0,0,151.85,44.676h9.409A19.55,19.55,0,0,0,178.89,55.844h2.792a5.59,5.59,0,0,1-5.584,5.584h-2.792a8.376,8.376,0,1,0,8.376,8.376,8.243,8.243,0,0,0-.966-3.819,11.164,11.164,0,0,0,6.55-10.14h5.584V80.973A25.155,25.155,0,0,1,167.723,106.1H145.388a25.153,25.153,0,0,1-25.129-25.128ZM139.8,67.013A2.792,2.792,0,1,1,137.01,69.8,2.793,2.793,0,0,1,139.8,67.013ZM176.1,69.8a2.792,2.792,0,1,1-2.792-2.792A2.793,2.793,0,0,1,176.1,69.8ZM75.586,120.06v-5.584a2.793,2.793,0,0,1,2.792-2.792h8.376v-4.428a1.2,1.2,0,0,1,1.974-.817l3.609,3.609v12.8H78.378a2.792,2.792,0,0,1-2.792-2.792Zm11.168,11.168v-2.792h5.584a5.59,5.59,0,0,0,5.584,5.584v5.584H95.129a8.386,8.386,0,0,1-8.375-8.376ZM103.506,142.4V134.02h11.168v16.752h-2.792a8.386,8.386,0,0,1-8.376-8.376Zm26.965,18-.77,1.544h-1.067a8.387,8.387,0,0,1-8.376-8.376V134.02h5.584v9.034l4.63,9.258a9.03,9.03,0,0,1,0,8.084Zm5-10.579-2.315-4.63h20.61v22.336h-20.61l2.315-4.63a14.623,14.623,0,0,0,0-13.077Zm23.879,17.706V145.188h20.61l-2.315,4.63a14.618,14.618,0,0,0,0,13.077l2.314,4.63Zm25.129-5.583h-1.066l-.77-1.544a9.017,9.017,0,0,1,0-8.08l4.63-9.26V134.02h5.584v19.544a8.388,8.388,0,0,1-8.376,8.376Zm16.751-11.168h-2.792V134.02H209.6V142.4a8.386,8.386,0,0,1-8.376,8.376Zm25.128-19.544a8.387,8.387,0,0,1-8.376,8.376h-2.792V134.02a5.59,5.59,0,0,0,5.584-5.584h5.584Zm11.168-11.168a2.793,2.793,0,0,1-2.792,2.792H220.77v-12.8l3.61-3.61a1.2,1.2,0,0,1,1.973.819v4.428h8.376a2.793,2.793,0,0,1,2.792,2.792Z" transform="translate(151.998 817.996)"/></g><g transform="matrix(0.777, 0.629, -0.629, 0.777, 1367.015, 976.3)" opacity="0.49"><path d="M204.828,94.6h16.752a8.387,8.387,0,0,0,8.376-8.376V80.634a8.387,8.387,0,0,0-8.376-8.376H204.828a8.387,8.387,0,0,0-8.376,8.376v5.584A8.388,8.388,0,0,0,204.828,94.6Zm-2.792-13.96a2.793,2.793,0,0,1,2.792-2.792h16.752a2.793,2.793,0,0,1,2.792,2.792V86.22a2.793,2.793,0,0,1-2.792,2.792H204.828a2.793,2.793,0,0,1-2.792-2.792Z" transform="translate(64.635 768.077)"/><path d="M403.538,72.258a8.387,8.387,0,0,0-8.376,8.376v5.584a8.387,8.387,0,0,0,8.376,8.376h16.752a8.387,8.387,0,0,0,8.376-8.376V80.634a8.387,8.387,0,0,0-8.376-8.376Zm19.544,8.376v5.584a2.793,2.793,0,0,1-2.792,2.792H403.539a2.793,2.793,0,0,1-2.792-2.792V80.634a2.793,2.793,0,0,1,2.792-2.792h16.752A2.792,2.792,0,0,1,423.083,80.634Z" transform="translate(-72.651 768.077)"/><path d="M332.759,270.97H304.84v2.792a13.96,13.96,0,0,0,27.919,0ZM318.8,282.138a8.392,8.392,0,0,1-7.9-5.584h15.8a8.394,8.394,0,0,1-7.9,5.584Z" transform="translate(-10.248 630.789)"/><path d="M234.728,106.1h-2.89a6.742,6.742,0,0,0-11.408-3.61l-3.61,3.61h-31.5a30.8,30.8,0,0,0,11.366-15.027l9.18-6.12a8.359,8.359,0,0,0,3.73-6.97V49.952a19.472,19.472,0,0,0,5.584-13.65V30.717A19.569,19.569,0,0,0,199.9,11.654,36.293,36.293,0,0,0,173.305,0H139.8A36.294,36.294,0,0,0,113.21,11.652,19.569,19.569,0,0,0,97.922,30.716V36.3a19.47,19.47,0,0,0,5.584,13.65V77.983a8.357,8.357,0,0,0,3.73,6.968l9.18,6.123A30.851,30.851,0,0,0,127.783,106.1h-31.5l-3.61-3.61a6.742,6.742,0,0,0-11.408,3.61h-2.89A8.387,8.387,0,0,0,70,114.476v5.584a8.387,8.387,0,0,0,8.376,8.376h2.792v2.792a13.975,13.975,0,0,0,13.96,13.96H98.2a13.984,13.984,0,0,0,13.678,11.168h3.074a13.941,13.941,0,0,0,12.034,11l-2.874,5.751h64.877l-2.876-5.751a13.943,13.943,0,0,0,12.034-11h3.077a13.985,13.985,0,0,0,13.678-11.168h3.074a13.975,13.975,0,0,0,13.96-13.96v-2.792h2.792a8.387,8.387,0,0,0,8.376-8.376v-5.584a8.386,8.386,0,0,0-8.376-8.375Zm-47.464,22.336V111.683h27.92v16.752ZM181.68,139.6H176.1v-27.92h5.584ZM97.922,128.436V111.683h27.92v16.752Zm33.5-16.752h5.584V139.6h-5.584Zm16.751,0v2.792a8.363,8.363,0,0,0,5.584,7.862v6.1H142.595V111.683Zm22.336,0v16.752H159.346v-6.1a8.364,8.364,0,0,0,5.584-7.862v-2.792Zm-11.168,2.793a2.792,2.792,0,1,1-5.583,0v-2.792h5.584Zm-16.751,19.543h11.168V139.6H142.595Zm16.751,0h11.168V139.6H159.346Zm43.43-53.712-4.459,2.97c.059-.764.118-1.526.118-2.306V55.621a19.382,19.382,0,0,0,5.584-1.689V77.984a2.786,2.786,0,0,1-1.244,2.323ZM209.6,30.716V36.3a13.975,13.975,0,0,1-13.96,13.96H178.892a13.975,13.975,0,0,1-13.96-13.96V30.716a13.975,13.975,0,0,1,13.96-13.96h16.752a13.975,13.975,0,0,1,13.96,13.96Zm-36.3-25.128a30.707,30.707,0,0,1,17.6,5.584H178.891A19.553,19.553,0,0,0,161.259,22.34H151.85a19.553,19.553,0,0,0-17.632-11.168H122.2a30.7,30.7,0,0,1,17.6-5.583Zm-13.737,33.5h-6.03a19.55,19.55,0,0,0,.223-2.792V30.718a19.55,19.55,0,0,0-.223-2.792h6.03a19.728,19.728,0,0,0-.223,2.792V36.3A19.743,19.743,0,0,0,159.57,39.094Zm-56.064-8.376a13.975,13.975,0,0,1,13.96-13.96h16.752a13.975,13.975,0,0,1,13.96,13.96V36.3a13.975,13.975,0,0,1-13.96,13.96H117.466a13.975,13.975,0,0,1-13.96-13.96Zm6.827,49.591a2.782,2.782,0,0,1-1.242-2.323V53.933a19.361,19.361,0,0,0,5.584,1.689V80.973c0,.779.059,1.544.117,2.306Zm9.925.664V55.845h5.584a11.164,11.164,0,0,0,6.55,10.14,8.238,8.238,0,0,0-.967,3.819,8.376,8.376,0,1,0,8.376-8.376h-2.792a5.59,5.59,0,0,1-5.584-5.584h2.792A19.553,19.553,0,0,0,151.85,44.676h9.409A19.55,19.55,0,0,0,178.89,55.844h2.792a5.59,5.59,0,0,1-5.584,5.584h-2.792a8.376,8.376,0,1,0,8.376,8.376,8.243,8.243,0,0,0-.966-3.819,11.164,11.164,0,0,0,6.55-10.14h5.584V80.973A25.155,25.155,0,0,1,167.723,106.1H145.388a25.153,25.153,0,0,1-25.129-25.128ZM139.8,67.013A2.792,2.792,0,1,1,137.01,69.8,2.793,2.793,0,0,1,139.8,67.013ZM176.1,69.8a2.792,2.792,0,1,1-2.792-2.792A2.793,2.793,0,0,1,176.1,69.8ZM75.586,120.06v-5.584a2.793,2.793,0,0,1,2.792-2.792h8.376v-4.428a1.2,1.2,0,0,1,1.974-.817l3.609,3.609v12.8H78.378a2.792,2.792,0,0,1-2.792-2.792Zm11.168,11.168v-2.792h5.584a5.59,5.59,0,0,0,5.584,5.584v5.584H95.129a8.386,8.386,0,0,1-8.375-8.376ZM103.506,142.4V134.02h11.168v16.752h-2.792a8.386,8.386,0,0,1-8.376-8.376Zm26.965,18-.77,1.544h-1.067a8.387,8.387,0,0,1-8.376-8.376V134.02h5.584v9.034l4.63,9.258a9.03,9.03,0,0,1,0,8.084Zm5-10.579-2.315-4.63h20.61v22.336h-20.61l2.315-4.63a14.623,14.623,0,0,0,0-13.077Zm23.879,17.706V145.188h20.61l-2.315,4.63a14.618,14.618,0,0,0,0,13.077l2.314,4.63Zm25.129-5.583h-1.066l-.77-1.544a9.017,9.017,0,0,1,0-8.08l4.63-9.26V134.02h5.584v19.544a8.388,8.388,0,0,1-8.376,8.376Zm16.751-11.168h-2.792V134.02H209.6V142.4a8.386,8.386,0,0,1-8.376,8.376Zm25.128-19.544a8.387,8.387,0,0,1-8.376,8.376h-2.792V134.02a5.59,5.59,0,0,0,5.584-5.584h5.584Zm11.168-11.168a2.793,2.793,0,0,1-2.792,2.792H220.77v-12.8l3.61-3.61a1.2,1.2,0,0,1,1.973.819v4.428h8.376a2.793,2.793,0,0,1,2.792,2.792Z" transform="translate(151.998 817.996)"/></g><g transform="matrix(0.875, 0.485, -0.485, 0.875, 521.837, 209.87)" opacity="0.49"><path d="M214.547,182.232a7.116,7.116,0,0,1,7.117,7.115,7.116,7.116,0,0,0,14.232,0,21.348,21.348,0,0,0-42.7,0,7.116,7.116,0,0,0,14.232,0,7.116,7.116,0,0,1,7.115-7.115Z" transform="translate(271.048 1034.812)"/><path d="M393.745,168A21.349,21.349,0,0,0,372.4,189.348a7.116,7.116,0,0,0,14.232,0,7.116,7.116,0,0,1,14.232,0,7.116,7.116,0,0,0,14.232,0A21.349,21.349,0,0,0,393.744,168Z" transform="translate(148.778 1034.812)"/><path d="M166.59,11.2a85.479,85.479,0,1,0,60.354,25.036A85.391,85.391,0,0,0,166.59,11.2Zm0,156.549a71.159,71.159,0,1,1,35.579-9.534,71.159,71.159,0,0,1-35.579,9.534Z" transform="translate(347.469 1141.803)"/><path d="M297,326.871l-4.163,4.181a27.93,27.93,0,0,1-38.532,0l-4.163-4.181A7.12,7.12,0,1,0,240.07,336.94l4.181,4.163a41.451,41.451,0,0,0,58.706,0l4.181-4.163a7.12,7.12,0,1,0-10.069-10.069Z" transform="translate(240.49 927.833)"/></g><g transform="translate(-526.209 1181.027) rotate(-59)" opacity="0.49"><path d="M214.547,182.232a7.116,7.116,0,0,1,7.117,7.115,7.116,7.116,0,0,0,14.232,0,21.348,21.348,0,0,0-42.7,0,7.116,7.116,0,0,0,14.232,0,7.116,7.116,0,0,1,7.115-7.115Z" transform="translate(271.048 1034.812)"/><path d="M393.745,168A21.349,21.349,0,0,0,372.4,189.348a7.116,7.116,0,0,0,14.232,0,7.116,7.116,0,0,1,14.232,0,7.116,7.116,0,0,0,14.232,0A21.349,21.349,0,0,0,393.744,168Z" transform="translate(148.778 1034.812)"/><path d="M166.59,11.2a85.479,85.479,0,1,0,60.354,25.036A85.391,85.391,0,0,0,166.59,11.2Zm0,156.549a71.159,71.159,0,1,1,35.579-9.534,71.159,71.159,0,0,1-35.579,9.534Z" transform="translate(347.469 1141.803)"/><path d="M297,326.871l-4.163,4.181a27.93,27.93,0,0,1-38.532,0l-4.163-4.181A7.12,7.12,0,1,0,240.07,336.94l4.181,4.163a41.451,41.451,0,0,0,58.706,0l4.181-4.163a7.12,7.12,0,1,0-10.069-10.069Z" transform="translate(240.49 927.833)"/></g><g transform="translate(-761.553 -110.677) rotate(-20)" opacity="0.49"><path d="M214.547,182.232a7.116,7.116,0,0,1,7.117,7.115,7.116,7.116,0,0,0,14.232,0,21.348,21.348,0,0,0-42.7,0,7.116,7.116,0,0,0,14.232,0,7.116,7.116,0,0,1,7.115-7.115Z" transform="translate(271.048 1034.812)"/><path d="M393.745,168A21.349,21.349,0,0,0,372.4,189.348a7.116,7.116,0,0,0,14.232,0,7.116,7.116,0,0,1,14.232,0,7.116,7.116,0,0,0,14.232,0A21.349,21.349,0,0,0,393.744,168Z" transform="translate(148.778 1034.812)"/><path d="M166.59,11.2a85.479,85.479,0,1,0,60.354,25.036A85.391,85.391,0,0,0,166.59,11.2Zm0,156.549a71.159,71.159,0,1,1,35.579-9.534,71.159,71.159,0,0,1-35.579,9.534Z" transform="translate(347.469 1141.803)"/><path d="M297,326.871l-4.163,4.181a27.93,27.93,0,0,1-38.532,0l-4.163-4.181A7.12,7.12,0,1,0,240.07,336.94l4.181,4.163a41.451,41.451,0,0,0,58.706,0l4.181-4.163a7.12,7.12,0,1,0-10.069-10.069Z" transform="translate(240.49 927.833)"/></g><g transform="translate(367.09 -66.041)" opacity="0.49"><path d="M150.64,0a80.759,80.759,0,0,1,80.888,80.888c0,45.408-36.536,81.1-81.73,81.1a81.076,81.076,0,0,1-80.888-81.1C68.91,35.481,105.446,0,150.64,0Zm-.423,153.328A64.838,64.838,0,0,0,169.436,151l-19.219-11.193L131,151A65.688,65.688,0,0,0,150.218,153.328Zm0-46.886,22.809-12.883V68L150.218,55.332,127.62,68V93.558Zm0-85.745,17.53-10.138a75.634,75.634,0,0,0-35.058,0L150.219,20.7ZM97.841,49.842,80.523,59.98A72.13,72.13,0,0,1,97.841,30.415v19.43ZM80.1,100.951l16.684,9.715v19.641A72.474,72.474,0,0,1,80.1,100.954Zm21.753,9.715,22.386-12.883,23.02,13.3v25.554l-22.809,12.25c-5.913-2.323-17.951-9.5-22.6-13.727v-24.5Zm20.063-17.53L99.109,106.23,78.624,94.192a67.692,67.692,0,0,1-1.267-13.3,63.161,63.161,0,0,1,1.478-14.15L99.532,54.7l22.386,12.883ZM102.91,25.765v24.92L125.3,63.569l22.176-12.883V24.92L126.141,12.46a89.9,89.9,0,0,0-23.231,13.3Zm99.684,24.076,17.53,10.138a72.56,72.56,0,0,0-17.53-29.565v19.43Zm17.74,51.109-16.684,9.715v19.641a72.474,72.474,0,0,0,16.684-29.354Zm-21.753,9.715L176.2,97.783l-23.442,12.672v25.554l23.231,12.883c5.913-2.323,18.162-9.5,22.6-13.727Zm-19.853-17.53,22.6,13.094,20.485-12.038a67.692,67.692,0,0,0,1.267-13.3,78.428,78.428,0,0,0-1.267-14.15L200.9,54.7,178.727,67.582V93.137Zm18.8-67.371v24.92L175.349,63.568,152.963,50.685V24.92L174.5,12.459c6.969,2.534,17.74,8.659,23.02,13.3Z" fill-rule="evenodd"/><g transform="translate(68.963 164.367)"><path d="M.843-1.973a.5.5,0,0,1-.118.041A.546.546,0,0,1,.6-1.919a.431.431,0,0,1-.307-.1.4.4,0,0,1-.108-.294A.4.4,0,0,1,.3-2.61.423.423,0,0,1,.6-2.719.443.443,0,0,1,.725-2.7a.5.5,0,0,1,.118.041V-2.5a.487.487,0,0,0-.108-.054.381.381,0,0,0-.113-.018.223.223,0,0,0-.172.068.279.279,0,0,0-.059.19.27.27,0,0,0,.059.185.223.223,0,0,0,.172.068.469.469,0,0,0,.113-.014.367.367,0,0,0,.108-.059Z" transform="translate(-0.187 2.719)"/></g><g transform="translate(69.773 164.561)"><path d="M.742-1.875a.224.224,0,0,0-.05-.018.339.339,0,0,0-.05,0,.141.141,0,0,0-.108.045A.2.2,0,0,0,.5-1.721v.267H.313v-.579H.5v.095A.186.186,0,0,1,.575-2.02a.229.229,0,0,1,.113-.027H.706a.31.31,0,0,1,.036,0Z" transform="translate(-0.313 2.047)"/></g><g transform="translate(70.249 164.561)"><path d="M.775-1.744v.05H.346a.126.126,0,0,0,.045.1A.177.177,0,0,0,.5-1.563a.391.391,0,0,0,.118-.018.682.682,0,0,0,.127-.05v.14a.492.492,0,0,1-.131.036.629.629,0,0,1-.131.014.359.359,0,0,1-.244-.077.294.294,0,0,1-.086-.226.29.29,0,0,1,.086-.221.327.327,0,0,1,.235-.081.293.293,0,0,1,.217.081.3.3,0,0,1,.081.221Zm-.19-.063a.12.12,0,0,0-.032-.086.1.1,0,0,0-.077-.032.135.135,0,0,0-.09.032.15.15,0,0,0-.041.086Z" transform="translate(-0.156 2.047)"/></g><g transform="translate(70.965 164.561)"><path d="M.459-1.717a.154.154,0,0,0-.09.023.066.066,0,0,0-.027.059.07.07,0,0,0,.023.054.117.117,0,0,0,.068.018A.116.116,0,0,0,.518-1.6a.129.129,0,0,0,.036-.095v-.023Zm.285-.068v.33H.554v-.086a.211.211,0,0,1-.086.077.248.248,0,0,1-.108.023.216.216,0,0,1-.149-.05.184.184,0,0,1-.054-.136.167.167,0,0,1,.068-.149.4.4,0,0,1,.221-.05H.554v-.014A.066.066,0,0,0,.518-1.9a.189.189,0,0,0-.1-.023A.462.462,0,0,0,.3-1.911a.285.285,0,0,0-.095.036V-2.02a.82.82,0,0,1,.118-.018.914.914,0,0,1,.122-.009.329.329,0,0,1,.226.063.247.247,0,0,1,.072.2Z" transform="translate(-0.156 2.047)"/></g><g transform="translate(71.647 164.412)"><path d="M.323-2.563V-2.4h.19v.131H.323v.249a.087.087,0,0,0,.014.054A.117.117,0,0,0,.4-1.952H.5v.131H.341a.228.228,0,0,1-.158-.045A.21.21,0,0,1,.137-2.02v-.249H.047V-2.4h.09v-.163Z" transform="translate(-0.047 2.563)"/></g><g transform="translate(72.183 164.561)"><path d="M.775-1.744v.05H.346a.126.126,0,0,0,.045.1A.177.177,0,0,0,.5-1.563a.391.391,0,0,0,.118-.018.682.682,0,0,0,.127-.05v.14a.492.492,0,0,1-.131.036.629.629,0,0,1-.131.014.359.359,0,0,1-.244-.077.294.294,0,0,1-.086-.226.29.29,0,0,1,.086-.221.327.327,0,0,1,.235-.081.293.293,0,0,1,.217.081.3.3,0,0,1,.081.221Zm-.19-.063a.12.12,0,0,0-.032-.086.1.1,0,0,0-.077-.032.135.135,0,0,0-.09.032.15.15,0,0,0-.041.086Z" transform="translate(-0.156 2.047)"/></g><g transform="translate(72.903 164.349)"><path d="M.606-2.469v-.312H.791v.8H.606v-.086a.254.254,0,0,1-.086.077.238.238,0,0,1-.1.023A.219.219,0,0,1,.24-2.045a.345.345,0,0,1-.068-.221A.341.341,0,0,1,.24-2.483a.216.216,0,0,1,.176-.086.2.2,0,0,1,.1.027.293.293,0,0,1,.086.072Zm-.122.375a.1.1,0,0,0,.09-.045.222.222,0,0,0,.032-.127.2.2,0,0,0-.032-.122.107.107,0,0,0-.09-.045.1.1,0,0,0-.09.045.194.194,0,0,0-.032.122.214.214,0,0,0,.032.127A.1.1,0,0,0,.484-2.094Z" transform="translate(-0.172 2.781)"/></g><g transform="translate(74.068 164.349)"><path d="M.62-2.094a.1.1,0,0,0,.09-.045.222.222,0,0,0,.032-.127A.2.2,0,0,0,.71-2.388a.107.107,0,0,0-.09-.045.1.1,0,0,0-.09.045A.194.194,0,0,0,.5-2.266a.214.214,0,0,0,.032.127A.1.1,0,0,0,.62-2.094ZM.5-2.469a.233.233,0,0,1,.081-.072.221.221,0,0,1,.108-.027.216.216,0,0,1,.176.086.341.341,0,0,1,.068.217.345.345,0,0,1-.068.221.219.219,0,0,1-.176.081.262.262,0,0,1-.108-.023A.209.209,0,0,1,.5-2.063v.086H.313v-.8H.5Z" transform="translate(-0.313 2.781)"/></g><g transform="translate(74.747 164.575)"><path d="M.047-2H.232l.154.393L.517-2H.7l-.244.633a.33.33,0,0,1-.086.136.183.183,0,0,1-.127.041H.137v-.122H.2a.1.1,0,0,0,.068-.018A.1.1,0,0,0,.3-1.385L.3-1.4Z" transform="translate(-0.047 2)"/></g><g transform="translate(75.875 164.561)"><path d="M.835-1.938A.254.254,0,0,1,.916-2.02a.221.221,0,0,1,.108-.027.181.181,0,0,1,.149.063.253.253,0,0,1,.054.176v.353H1.043v-.334a.178.178,0,0,0-.018-.09A.062.062,0,0,0,.97-1.907a.1.1,0,0,0-.086.045.222.222,0,0,0-.027.122v.285H.672v-.3A.269.269,0,0,0,.654-1.88.066.066,0,0,0,.6-1.907a.09.09,0,0,0-.081.045.222.222,0,0,0-.027.122v.285H.3v-.579h.19v.086A.2.2,0,0,1,.563-2.02a.178.178,0,0,1,.095-.027.192.192,0,0,1,.108.032.18.18,0,0,1,.068.077Z" transform="translate(-0.297 2.047)"/></g><g transform="translate(76.935 164.561)"><path d="M.477-1.916a.108.108,0,0,0-.095.045.216.216,0,0,0-.032.127.222.222,0,0,0,.032.131.111.111,0,0,0,.095.041.109.109,0,0,0,.09-.041A.231.231,0,0,0,.6-1.744a.225.225,0,0,0-.032-.127A.107.107,0,0,0,.477-1.916Zm0-.131a.312.312,0,0,1,.231.081.294.294,0,0,1,.086.221.3.3,0,0,1-.086.226.319.319,0,0,1-.231.077.341.341,0,0,1-.24-.077.3.3,0,0,1-.081-.226.3.3,0,0,1,.081-.221A.333.333,0,0,1,.477-2.047Z" transform="translate(-0.156 2.047)"/></g><g transform="translate(77.705 164.349)"><path d="M.891-2.329v.353H.706v-.267a.927.927,0,0,0,0-.1.09.09,0,0,0-.009-.045A.119.119,0,0,0,.661-2.42.1.1,0,0,0,.62-2.429a.1.1,0,0,0-.09.045A.208.208,0,0,0,.5-2.261v.285H.313v-.8H.5v.312a.279.279,0,0,1,.086-.072.213.213,0,0,1,.1-.027.181.181,0,0,1,.149.063.253.253,0,0,1,.054.176Z" transform="translate(-0.313 2.781)"/></g><g transform="translate(78.457 164.349)"><path d="M.313-2.781H.5v.438L.71-2.555H.923l-.28.267.3.312H.719L.5-2.216v.24H.313Z" transform="translate(-0.313 2.781)"/></g><g transform="translate(79.114 164.561)"><path d="M.459-1.717a.154.154,0,0,0-.09.023.066.066,0,0,0-.027.059.07.07,0,0,0,.023.054.117.117,0,0,0,.068.018A.116.116,0,0,0,.518-1.6a.129.129,0,0,0,.036-.095v-.023Zm.285-.068v.33H.554v-.086a.211.211,0,0,1-.086.077.248.248,0,0,1-.108.023.216.216,0,0,1-.149-.05.184.184,0,0,1-.054-.136.167.167,0,0,1,.068-.149.4.4,0,0,1,.221-.05H.554v-.014A.066.066,0,0,0,.518-1.9a.189.189,0,0,0-.1-.023A.462.462,0,0,0,.3-1.911a.285.285,0,0,0-.095.036V-2.02a.82.82,0,0,1,.118-.018.914.914,0,0,1,.122-.009.329.329,0,0,1,.226.063.247.247,0,0,1,.072.2Z" transform="translate(-0.156 2.047)"/></g><g transform="translate(79.868 164.561)"><path d="M.835-1.938A.254.254,0,0,1,.916-2.02a.221.221,0,0,1,.108-.027.181.181,0,0,1,.149.063.253.253,0,0,1,.054.176v.353H1.043v-.334a.178.178,0,0,0-.018-.09A.062.062,0,0,0,.97-1.907a.1.1,0,0,0-.086.045.222.222,0,0,0-.027.122v.285H.672v-.3A.269.269,0,0,0,.654-1.88.066.066,0,0,0,.6-1.907a.09.09,0,0,0-.081.045.222.222,0,0,0-.027.122v.285H.3v-.579h.19v.086A.2.2,0,0,1,.563-2.02a.178.178,0,0,1,.095-.027.192.192,0,0,1,.108.032.18.18,0,0,1,.068.077Z" transform="translate(-0.297 2.047)"/></g><g transform="translate(80.972 164.349)"><path d="M.313-2.555H.5v.579H.313Zm0-.226H.5v.154H.313Z" transform="translate(-0.313 2.781)"/></g><g transform="translate(81.335 164.349)"><path d="M.313-2.781H.5v.8H.313Z" transform="translate(-0.313 2.781)"/></g><g transform="translate(68.927 165.404)"><path d="M.514-2.781v.122h-.1a.087.087,0,0,0-.054.014.071.071,0,0,0-.014.05v.041H.5v.131H.343v.447H.157v-.447H.063v-.131H.157V-2.6a.178.178,0,0,1,.05-.14.262.262,0,0,1,.167-.045Z" transform="translate(-0.063 2.781)"/></g><g transform="translate(69.458 165.617)"><path d="M.742-1.875a.224.224,0,0,0-.05-.018.339.339,0,0,0-.05,0,.141.141,0,0,0-.108.045A.2.2,0,0,0,.5-1.721v.267H.313v-.579H.5v.095A.186.186,0,0,1,.575-2.02a.229.229,0,0,1,.113-.027H.706a.31.31,0,0,1,.036,0Z" transform="translate(-0.313 2.047)"/></g><g transform="translate(69.934 165.617)"><path d="M.477-1.916a.108.108,0,0,0-.095.045.216.216,0,0,0-.032.127.222.222,0,0,0,.032.131.111.111,0,0,0,.095.041.109.109,0,0,0,.09-.041A.231.231,0,0,0,.6-1.744a.225.225,0,0,0-.032-.127A.107.107,0,0,0,.477-1.916Zm0-.131a.312.312,0,0,1,.231.081.294.294,0,0,1,.086.221.3.3,0,0,1-.086.226.319.319,0,0,1-.231.077.341.341,0,0,1-.24-.077.3.3,0,0,1-.081-.226.3.3,0,0,1,.081-.221A.333.333,0,0,1,.477-2.047Z" transform="translate(-0.156 2.047)"/></g><g transform="translate(70.7 165.617)"><path d="M.835-1.938A.254.254,0,0,1,.916-2.02a.221.221,0,0,1,.108-.027.181.181,0,0,1,.149.063.253.253,0,0,1,.054.176v.353H1.043v-.334a.178.178,0,0,0-.018-.09A.062.062,0,0,0,.97-1.907a.1.1,0,0,0-.086.045.222.222,0,0,0-.027.122v.285H.672v-.3A.269.269,0,0,0,.654-1.88.066.066,0,0,0,.6-1.907a.09.09,0,0,0-.081.045.222.222,0,0,0-.027.122v.285H.3v-.579h.19v.086A.2.2,0,0,1,.563-2.02a.178.178,0,0,1,.095-.027.192.192,0,0,1,.108.032.18.18,0,0,1,.068.077Z" transform="translate(-0.297 2.047)"/></g><g transform="translate(72.095 165.468)"><path d="M.323-2.563V-2.4h.19v.131H.323v.249a.087.087,0,0,0,.014.054A.117.117,0,0,0,.4-1.952H.5v.131H.341a.228.228,0,0,1-.158-.045A.21.21,0,0,1,.137-2.02v-.249H.047V-2.4h.09v-.163Z" transform="translate(-0.047 2.563)"/></g><g transform="translate(72.677 165.404)"><path d="M.891-2.329v.353H.706v-.267a.927.927,0,0,0,0-.1.09.09,0,0,0-.009-.045A.119.119,0,0,0,.661-2.42.1.1,0,0,0,.62-2.429a.1.1,0,0,0-.09.045A.208.208,0,0,0,.5-2.261v.285H.313v-.8H.5v.312a.279.279,0,0,1,.086-.072.213.213,0,0,1,.1-.027.181.181,0,0,1,.149.063.253.253,0,0,1,.054.176Z" transform="translate(-0.313 2.781)"/></g><g transform="translate(73.383 165.617)"><path d="M.775-1.744v.05H.346a.126.126,0,0,0,.045.1A.177.177,0,0,0,.5-1.563a.391.391,0,0,0,.118-.018.682.682,0,0,0,.127-.05v.14a.492.492,0,0,1-.131.036.629.629,0,0,1-.131.014.359.359,0,0,1-.244-.077.294.294,0,0,1-.086-.226.29.29,0,0,1,.086-.221.327.327,0,0,1,.235-.081.293.293,0,0,1,.217.081.3.3,0,0,1,.081.221Zm-.19-.063a.12.12,0,0,0-.032-.086.1.1,0,0,0-.077-.032.135.135,0,0,0-.09.032.15.15,0,0,0-.041.086Z" transform="translate(-0.156 2.047)"/></g><g transform="translate(74.518 165.436)"><path d="M.328-2.672H.554l.28.529v-.529H1.02V-1.9H.8l-.28-.529V-1.9H.328Z" transform="translate(-0.328 2.672)"/></g><g transform="translate(75.352 165.617)"><path d="M.477-1.916a.108.108,0,0,0-.095.045.216.216,0,0,0-.032.127.222.222,0,0,0,.032.131.111.111,0,0,0,.095.041.109.109,0,0,0,.09-.041A.231.231,0,0,0,.6-1.744a.225.225,0,0,0-.032-.127A.107.107,0,0,0,.477-1.916Zm0-.131a.312.312,0,0,1,.231.081.294.294,0,0,1,.086.221.3.3,0,0,1-.086.226.319.319,0,0,1-.231.077.341.341,0,0,1-.24-.077.3.3,0,0,1-.081-.226.3.3,0,0,1,.081-.221A.333.333,0,0,1,.477-2.047Z" transform="translate(-0.156 2.047)"/></g><g transform="translate(76.113 165.63)"><path d="M.281-1.648V-2H.467v.271a.707.707,0,0,0,0,.1.093.093,0,0,0,.014.045.053.053,0,0,0,.027.027.09.09,0,0,0,.045.009.1.1,0,0,0,.086-.041.2.2,0,0,0,.036-.127V-2H.864v.579H.679v-.086a.237.237,0,0,1-.09.077.225.225,0,0,1-.1.023.2.2,0,0,1-.158-.059.28.28,0,0,1-.05-.181Z" transform="translate(-0.281 2)"/></g><g transform="translate(76.874 165.617)"><path d="M.891-1.807v.353H.706v-.271a.876.876,0,0,0,0-.1.09.09,0,0,0-.009-.045A.119.119,0,0,0,.661-1.9.1.1,0,0,0,.62-1.907a.1.1,0,0,0-.09.045A.208.208,0,0,0,.5-1.74v.285H.313v-.579H.5v.086A.279.279,0,0,1,.584-2.02a.213.213,0,0,1,.1-.027.181.181,0,0,1,.149.063.253.253,0,0,1,.054.176Z" transform="translate(-0.313 2.047)"/></g><g transform="translate(77.998 165.436)"><path d="M.328-2.672h.33A.333.333,0,0,1,.884-2.6a.221.221,0,0,1,.081.185.233.233,0,0,1-.081.19.345.345,0,0,1-.226.063H.527V-1.9h-.2Zm.2.145v.217H.64a.137.137,0,0,0,.09-.027.111.111,0,0,0,.032-.081A.1.1,0,0,0,.73-2.5a.127.127,0,0,0-.09-.032Z" transform="translate(-0.328 2.672)"/></g><g transform="translate(78.768 165.617)"><path d="M.742-1.875a.224.224,0,0,0-.05-.018.339.339,0,0,0-.05,0,.141.141,0,0,0-.108.045A.2.2,0,0,0,.5-1.721v.267H.313v-.579H.5v.095A.186.186,0,0,1,.575-2.02a.229.229,0,0,1,.113-.027H.706a.31.31,0,0,1,.036,0Z" transform="translate(-0.313 2.047)"/></g><g transform="translate(79.243 165.617)"><path d="M.477-1.916a.108.108,0,0,0-.095.045.216.216,0,0,0-.032.127.222.222,0,0,0,.032.131.111.111,0,0,0,.095.041.109.109,0,0,0,.09-.041A.231.231,0,0,0,.6-1.744a.225.225,0,0,0-.032-.127A.107.107,0,0,0,.477-1.916Zm0-.131a.312.312,0,0,1,.231.081.294.294,0,0,1,.086.221.3.3,0,0,1-.086.226.319.319,0,0,1-.231.077.341.341,0,0,1-.24-.077.3.3,0,0,1-.081-.226.3.3,0,0,1,.081-.221A.333.333,0,0,1,.477-2.047Z" transform="translate(-0.156 2.047)"/></g><g transform="translate(79.887 165.404)"><path d="M0-2.555H.187v.569a.255.255,0,0,1-.059.176.2.2,0,0,1-.163.063h-.09v-.122h.032A.082.082,0,0,0-.021-1.9.134.134,0,0,0,0-1.986Zm0-.226H.187v.154H0Z" transform="translate(0.125 2.781)"/></g><g transform="translate(80.33 165.617)"><path d="M.775-1.744v.05H.346a.126.126,0,0,0,.045.1A.177.177,0,0,0,.5-1.563a.391.391,0,0,0,.118-.018.682.682,0,0,0,.127-.05v.14a.492.492,0,0,1-.131.036.629.629,0,0,1-.131.014.359.359,0,0,1-.244-.077.294.294,0,0,1-.086-.226.29.29,0,0,1,.086-.221.327.327,0,0,1,.235-.081.293.293,0,0,1,.217.081.3.3,0,0,1,.081.221Zm-.19-.063a.12.12,0,0,0-.032-.086.1.1,0,0,0-.077-.032.135.135,0,0,0-.09.032.15.15,0,0,0-.041.086Z" transform="translate(-0.156 2.047)"/></g><g transform="translate(81.047 165.617)"><path d="M.667-2.015v.149A.4.4,0,0,0,.59-1.9a.22.22,0,0,0-.077-.014.166.166,0,0,0-.122.045.183.183,0,0,0-.041.127.181.181,0,0,0,.041.127.161.161,0,0,0,.122.045.256.256,0,0,0,.081-.014.255.255,0,0,0,.072-.036v.149a.342.342,0,0,1-.09.023.425.425,0,0,1-.086.009.366.366,0,0,1-.249-.077.294.294,0,0,1-.086-.226.282.282,0,0,1,.086-.221.356.356,0,0,1,.249-.081.426.426,0,0,1,.086.009.392.392,0,0,1,.09.023Z" transform="translate(-0.156 2.047)"/></g><g transform="translate(81.641 165.468)"><path d="M.323-2.563V-2.4h.19v.131H.323v.249a.087.087,0,0,0,.014.054A.117.117,0,0,0,.4-1.952H.5v.131H.341a.228.228,0,0,1-.158-.045A.21.21,0,0,1,.137-2.02v-.249H.047V-2.4h.09v-.163Z" transform="translate(-0.047 2.563)"/></g></g><path d="M150.312,0A10.331,10.331,0,0,0,140,10.316v92.852a10.332,10.332,0,0,0,10.316,10.316h10.316V123.8l12.9-10.316,12.9,10.316V113.485h36.111a10.33,10.33,0,0,0,10.316-10.316V98.01a10.331,10.331,0,0,1-10.316,10.316H186.422V98.01H160.631v10.316h-7.738a7.834,7.834,0,0,1-7.738-7.738,7.512,7.512,0,0,1,7.738-7.738h69.639a10.33,10.33,0,0,0,10.316-10.316V10.317A10.331,10.331,0,0,0,222.533,0Z" transform="translate(584.201 188.5) rotate(45)" opacity="0.49"/><path d="M150.312,0A10.331,10.331,0,0,0,140,10.316v92.852a10.332,10.332,0,0,0,10.316,10.316h10.316V123.8l12.9-10.316,12.9,10.316V113.485h36.111a10.33,10.33,0,0,0,10.316-10.316V98.01a10.331,10.331,0,0,1-10.316,10.316H186.422V98.01H160.631v10.316h-7.738a7.834,7.834,0,0,1-7.738-7.738,7.512,7.512,0,0,1,7.738-7.738h69.639a10.33,10.33,0,0,0,10.316-10.316V10.317A10.331,10.331,0,0,0,222.533,0Z" transform="matrix(0.891, -0.454, 0.454, 0.891, 172.045, 735.571)" opacity="0.49"/><path d="M150.312,0A10.331,10.331,0,0,0,140,10.316v92.852a10.332,10.332,0,0,0,10.316,10.316h10.316V123.8l12.9-10.316,12.9,10.316V113.485h36.111a10.33,10.33,0,0,0,10.316-10.316V98.01a10.331,10.331,0,0,1-10.316,10.316H186.422V98.01H160.631v10.316h-7.738a7.834,7.834,0,0,1-7.738-7.738,7.512,7.512,0,0,1,7.738-7.738h69.639a10.33,10.33,0,0,0,10.316-10.316V10.317A10.331,10.331,0,0,0,222.533,0Z" transform="translate(705.677 1041.169) rotate(129)" opacity="0.49"/></g></svg>